<?xml version="1.0" standalone="no"?>
<!DOCTYPE svg PUBLIC "-//W3C//DTD SVG 20010904//EN"
 "http://www.w3.org/TR/2001/REC-SVG-20010904/DTD/svg10.dtd">
<svg version="1.0" xmlns="http://www.w3.org/2000/svg"
 width="197.000000pt" height="197.000000pt" viewBox="0 0 197.000000 197.000000"
 preserveAspectRatio="xMidYMid meet">
<metadata>
Created by potrace 1.11, written by Peter Selinger 2001-2013
</metadata>
<g transform="translate(0.000000,197.000000) scale(0.100000,-0.100000)"
fill="#000000" stroke="none">
<path d="M813 1955 c-355 -64 -644 -312 -760 -650 -157 -460 52 -970 487
-1190 527 -267 1175 -1 1367 560 174 510 -101 1067 -612 1242 -150 51 -332 65
-482 38z m362 -209 c148 -40 307 -141 402 -255 63 -76 135 -217 160 -311 24
-90 24 -291 0 -380 -60 -223 -209 -405 -412 -506 -129 -63 -196 -79 -345 -79
-149 0 -216 16 -345 79 -203 101 -352 283 -412 506 -24 89 -24 291 0 380 79
293 309 512 607 575 81 18 262 13 345 -9z"/>
<path d="M890 1534 c-120 -24 -235 -88 -317 -178 -50 -55 -105 -152 -119 -208
l-6 -28 130 0 129 0 27 40 c79 120 246 162 381 95 104 -50 160 -143 160 -265
0 -122 -56 -215 -160 -265 -138 -68 -308 -23 -383 100 l-27 44 -132 1 -132 0
20 -57 c55 -161 184 -289 347 -345 95 -32 249 -32 343 0 166 57 294 185 351
350 32 95 32 249 0 344 -57 164 -183 291 -348 349 -58 20 -210 33 -264 23z"/>
</g>
</svg>
